<svg xmlns="http://www.w3.org/2000/svg" viewBox="-295.0 -5.0 516.0 336.0" fill="none">
  <!-- Dark charcoal side structure -->
  <path d="M0,0 L3,1 L3,145 L-24,161 L-46,174 L-75,191 L-90,200 L-112,213 L-134,226 L-149,235 L-178,252 L-205,268 L-231,284 L-232,292 L-252,292 L-252,190 L-243,184 L-217,169 L-202,160 L-185,150 L-161,136 L-132,119 L-105,103 L-79,88 L-74,89 L-45,106 L-20,121 L-17,122 L-18,97 L-18,38 L-17,34 L-35,45 L-36,90 L-41,88 L-57,79 L-58,57 L-86,74 L-111,88 L-135,102 L-159,116 L-185,131 L-207,144 L-233,159 L-246,167 L-265,178 L-268,180 L-269,292 L-290,292 L-290,170 L-270,158 L-246,144 L-224,131 L-200,117 L-183,107 L-157,92 L-135,79 L-111,65 L-87,51 L-63,37 L-39,23 L-15,9 Z M-79,110 L-101,123 L-122,135 L-144,148 L-173,165 L-202,182 L-224,195 L-232,200 L-232,260 L-227,259 L-212,250 L-195,240 L-168,224 L-139,207 L-112,191 L-86,176 L-61,161 L-32,144 L-27,141 L-28,138 L-47,127 L-64,117 L-76,110 Z " fill="#2B2B2B"/>

  <!-- Orange front structure -->
  <path d="M0,0 L112,0 L216,1 L216,17 L201,26 L180,38 L161,49 L135,64 L109,79 L83,94 L59,108 L38,120 L16,133 L-8,147 L-29,159 L-58,176 L-79,188 L-92,196 L-93,326 L-154,326 L-154,95 L-144,88 L-124,76 L-106,65 L-80,49 L-52,32 L-28,17 L-8,5 Z M36,17 L40,21 L62,34 L77,43 L102,58 L107,57 L125,47 L146,35 L169,22 L174,18 L136,17 Z M18,28 L18,108 L23,106 L49,91 L73,77 L85,70 L81,66 L66,57 L45,44 L19,28 Z M-2,36 L-12,55 L-20,71 L-34,99 L-44,118 L-55,140 L-60,149 L-60,152 L-55,150 L-27,134 L-10,124 L-1,119 L0,114 L0,40 Z M-27,39 L-47,51 L-75,68 L-95,80 L-121,96 L-126,99 L-124,103 L-105,117 L-86,131 L-78,137 L-74,136 L-63,114 L-53,95 L-43,76 L-35,60 L-26,43 L-25,39 Z M-135,118 L-135,308 L-116,308 L-115,307 L-115,184 L-110,182 L-86,168 L-76,162 L-76,160 L-90,150 L-108,137 L-124,125 L-134,118 Z M-61,152 Z " fill="#D4622A"/>
</svg>
